<svg width="150" height="135" viewBox="0 0 150 135" fill="none" xmlns="http://www.w3.org/2000/svg">
<circle opacity="0.1" cx="81.8547" cy="67.5" r="67.5" fill="url(#paint0_linear)"/>
<path fill-rule="evenodd" clip-rule="evenodd" d="M76.7776 66.5012C64.998 66.5012 55.4488 74.8799 55.4488 85.2155V85.2633C55.4488 95.5989 64.998 103.978 76.7776 103.978H108.231C109.406 103.978 110.559 103.894 111.682 103.734L117.776 108.898C117.942 109.039 118.163 109.117 118.394 109.117C118.884 109.117 119.282 108.768 119.282 108.338L119.283 101.273C125.444 97.9914 129.56 92.0491 129.56 85.2633V85.2155C129.56 74.8799 120.011 66.5012 108.231 66.5012H76.7776Z" fill="#1D4885"/>
<path d="M81.9512 21.6649H37.04C20.2121 21.6649 6.57031 33.6345 6.57031 48.3997C6.57031 63.1648 20.2121 75.1344 37.04 75.1344H81.9512C98.7791 75.1344 112.421 63.1648 112.421 48.3997C112.421 33.6345 98.7791 21.6649 81.9512 21.6649Z" fill="url(#paint1_linear)"/>
<path fill-rule="evenodd" clip-rule="evenodd" d="M21.2498 67.3577V81.3535C21.2498 81.9688 21.8182 82.4675 22.5193 82.4675C22.8482 82.4675 23.1642 82.3555 23.4009 82.1552L35.1226 72.2316L21.2498 67.3577Z" fill="url(#paint2_linear)"/>
<path d="M39.1032 51.7415C41.8202 51.7415 44.0228 49.8089 44.0228 47.4249C44.0228 45.041 41.8202 43.1084 39.1032 43.1084C36.3862 43.1084 34.1836 45.041 34.1836 47.4249C34.1836 49.8089 36.3862 51.7415 39.1032 51.7415Z" fill="white"/>
<path d="M59.2575 51.7415C61.9745 51.7415 64.1771 49.8089 64.1771 47.4249C64.1771 45.041 61.9745 43.1084 59.2575 43.1084C56.5405 43.1084 54.3379 45.041 54.3379 47.4249C54.3379 49.8089 56.5405 51.7415 59.2575 51.7415Z" fill="white"/>
<path d="M79.8881 51.7415C82.6051 51.7415 84.8077 49.8089 84.8077 47.4249C84.8077 45.041 82.6051 43.1084 79.8881 43.1084C77.1711 43.1084 74.9685 45.041 74.9685 47.4249C74.9685 49.8089 77.1711 51.7415 79.8881 51.7415Z" fill="white"/>
<defs>
<linearGradient id="paint0_linear" x1="175.938" y1="-204.224" x2="74.7612" y2="149.495" gradientUnits="userSpaceOnUse">
<stop stop-color="#5498FF"/>
<stop offset="0.515625" stop-color="#428EFF"/>
<stop offset="1" stop-color="#297FFF"/>
</linearGradient>
<linearGradient id="paint1_linear" x1="133.264" y1="-59.222" x2="111.813" y2="89.2382" gradientUnits="userSpaceOnUse">
<stop stop-color="#5498FF"/>
<stop offset="0.515625" stop-color="#428EFF"/>
<stop offset="1" stop-color="#297FFF"/>
</linearGradient>
<linearGradient id="paint2_linear" x1="37.8542" y1="44.5" x2="25.6917" y2="83.5398" gradientUnits="userSpaceOnUse">
<stop stop-color="#5498FF"/>
<stop offset="0.515625" stop-color="#428EFF"/>
<stop offset="1" stop-color="#297FFF"/>
</linearGradient>
</defs>
</svg>
